<svg id="Layer_1" data-name="Layer 1" xmlns="http://www.w3.org/2000/svg" viewBox="0 0 640.95 783.194">
  <g>
    <rect x="30.777" y="22.48" width="582.261" height="737.821" transform="translate(-12.324 10.471) rotate(-1.828)" fill="#292a2e"></rect>
    <rect x="30.777" y="22.48" width="582.261" height="737.821" transform="translate(-12.324 10.471) rotate(-1.828)" fill="#fff" opacity="0.58"></rect>
    <g>
      <g>
        <rect x="29.844" y="23.186" width="581.261" height="736.821" transform="translate(-31.11 27.674) rotate(-4.716)" fill="#fff"></rect>
        <path d="M579.375,1.079l60.5,733.33-578.3,47.706L1.079,48.785l578.3-47.706M580.29,0,0,47.871,60.66,783.194l580.29-47.871L580.29,0Z"></path>
      </g>
      <rect x="276.36" y="63.1" width="265.304" height="19.184" transform="translate(-4.592 33.873) rotate(-4.716)" fill="#292a2e"></rect>
      <g>
        <line x1="280.349" y1="126.512" x2="544.756" y2="104.7" fill="#fff"></line>
        <rect x="279.9" y="115.106" width="265.304" height="1" transform="matrix(0.997, -0.082, 0.082, 0.997, -8.09, 34.217)"></rect>
      </g>
      <g>
        <line x1="283.245" y1="161.61" x2="547.651" y2="139.798" fill="#fff"></line>
        <rect x="282.796" y="150.204" width="265.304" height="1" transform="matrix(0.997, -0.082, 0.082, 0.997, -10.958, 34.572)"></rect>
      </g>
      <g>
        <line x1="286.14" y1="196.709" x2="550.546" y2="174.896" fill="#fff"></line>
        <rect x="285.691" y="185.302" width="265.304" height="1" transform="matrix(0.997, -0.082, 0.082, 0.997, -13.826, 34.928)"></rect>
      </g>
      <g>
        <line x1="289.036" y1="231.807" x2="553.442" y2="209.995" fill="#fff"></line>
        <rect x="288.586" y="220.4" width="265.304" height="1" transform="matrix(0.997, -0.082, 0.082, 0.997, -16.694, 35.283)"></rect>
      </g>
      <g>
        <line x1="291.931" y1="266.905" x2="410.68" y2="257.109" fill="#fff"></line>
        <rect x="291.729" y="261.507" width="119.152" height="1" transform="matrix(0.997, -0.082, 0.082, 0.997, -20.3, 29.688)"></rect>
      </g>
      <rect x="68.316" y="320.787" width="494.217" height="19.184" transform="translate(-26.094 27.051) rotate(-4.716)" fill="#292a2e"></rect>
      <g>
        <g>
          <g>
            <line x1="120.938" y1="597.142" x2="321.907" y2="580.563" fill="#fff"></line>
            <rect x="120.596" y="588.353" width="201.652" height="1" transform="matrix(0.997, -0.082, 0.082, 0.997, -47.538, 20.138)"></rect>
          </g>
          <g>
            <line x1="124.345" y1="638.448" x2="325.315" y2="621.869" fill="#fff"></line>
            <rect x="124.004" y="629.658" width="201.652" height="1" transform="matrix(0.997, -0.082, 0.082, 0.997, -50.913, 20.557)"></rect>
          </g>
          <g>
            <line x1="127.753" y1="679.754" x2="328.722" y2="663.175" fill="#fff"></line>
            <rect x="127.411" y="670.964" width="201.652" height="1" transform="matrix(0.997, -0.082, 0.082, 0.997, -54.288, 20.975)"></rect>
          </g>
          <g>
            <line x1="131.16" y1="721.06" x2="332.13" y2="704.481" fill="#fff"></line>
            <rect x="130.819" y="712.27" width="201.652" height="1" transform="matrix(0.997, -0.082, 0.082, 0.997, -57.664, 21.394)"></rect>
          </g>
        </g>
        <circle cx="100.007" cy="596.092" r="10.575" fill="#292a2e"></circle>
        <circle cx="110.457" cy="722.768" r="10.575" fill="#292a2e"></circle>
        <circle cx="107.05" cy="681.462" r="10.575" fill="#292a2e"></circle>
        <circle cx="103.528" cy="638.777" r="10.575" fill="#292a2e"></circle>
      </g>
      <g>
        <g>
          <g>
            <line x1="381.271" y1="575.666" x2="582.24" y2="559.087" fill="#fff"></line>
            <rect x="380.929" y="566.876" width="201.652" height="1" transform="matrix(0.997, -0.082, 0.082, 0.997, -44.9, 41.412)"></rect>
          </g>
          <g>
            <line x1="384.678" y1="616.972" x2="585.648" y2="600.393" fill="#fff"></line>
            <rect x="384.337" y="608.182" width="201.652" height="1" transform="matrix(0.997, -0.082, 0.082, 0.997, -48.275, 41.831)"></rect>
          </g>
          <g>
            <line x1="388.086" y1="658.278" x2="589.055" y2="641.699" fill="#fff"></line>
            <rect x="387.744" y="649.488" width="201.652" height="1" transform="matrix(0.997, -0.082, 0.082, 0.997, -51.651, 42.249)"></rect>
          </g>
          <g>
            <line x1="391.493" y1="699.584" x2="592.463" y2="683.005" fill="#fff"></line>
            <rect x="391.152" y="690.794" width="201.652" height="1" transform="matrix(0.997, -0.082, 0.082, 0.997, -55.026, 42.668)"></rect>
          </g>
        </g>
        <circle cx="360.34" cy="574.615" r="10.575" fill="#292a2e"></circle>
        <circle cx="370.79" cy="701.291" r="10.575" fill="#292a2e"></circle>
        <circle cx="367.383" cy="659.986" r="10.575" fill="#292a2e"></circle>
        <circle cx="363.862" cy="617.301" r="10.575" fill="#292a2e"></circle>
      </g>
      <circle cx="155.428" cy="154.29" r="34.809" fill="#0089DF"></circle>
      <path d="M242.612,240.179A102.119,102.119,0,0,1,83.5,253.305a100.041,100.041,0,0,1,159.109-13.126Z" fill="#0089DF"></path>
      <path d="M157.936,82.121a101.133,101.133,0,0,1,8.2,201.924c-2.8.231-5.635.348-8.429.348a101.133,101.133,0,0,1-8.2-201.924c2.8-.231,5.633-.348,8.43-.348h0m0-1c-2.814,0-5.656.116-8.51.351h0A102.13,102.13,0,0,0,56.032,191.653h0A102.136,102.136,0,0,0,157.7,285.393q4.222,0,8.511-.352h0A102.13,102.13,0,0,0,259.6,174.86h0A102.135,102.135,0,0,0,157.931,81.121Z"></path>
      <g>
        <g>
          <line x1="73.097" y1="398.513" x2="565.642" y2="357.881" fill="#fff"></line>
          <rect x="72.261" y="377.697" width="494.218" height="1" transform="matrix(0.997, -0.082, 0.082, 0.997, -29.935, 27.46)"></rect>
        </g>
        <g>
          <line x1="75.993" y1="433.611" x2="568.537" y2="392.979" fill="#fff"></line>
          <rect x="75.156" y="412.795" width="494.217" height="0.999" transform="translate(-32.834 27.844) rotate(-4.708)"></rect>
        </g>
        <g>
          <line x1="78.888" y1="468.709" x2="571.432" y2="428.077" fill="#fff"></line>
          <rect x="78.052" y="447.894" width="494.217" height="0.999" transform="translate(-35.705 28.2) rotate(-4.708)"></rect>
        </g>
        <g>
          <line x1="81.784" y1="503.808" x2="574.328" y2="463.175" fill="#fff"></line>
          <rect x="80.947" y="482.992" width="494.218" height="0.999" transform="translate(-38.576 28.556) rotate(-4.708)"></rect>
        </g>
        <g>
          <line x1="84.679" y1="538.906" x2="203.428" y2="529.11" fill="#fff"></line>
          <rect x="84.477" y="533.508" width="119.152" height="1" transform="matrix(0.997, -0.082, 0.082, 0.997, -43.301, 13.61)"></rect>
        </g>
      </g>
    </g>
    <path d="M66.245,10.23A14.81,14.81,0,0,1,78.823,26.381l-5.23,56.5A11.225,11.225,0,0,1,61.431,93.071a11,11,0,0,1-9.738-11.93l5.379-58.092a7.378,7.378,0,0,1,7.195-6.781,7.245,7.245,0,0,1,7.236,7.9L67.728,64.946a1.86,1.86,0,0,1-2.023,1.68h0A1.859,1.859,0,0,1,64.026,64.6l3.76-40.617a3.625,3.625,0,0,0-2.816-3.935,3.523,3.523,0,0,0-4.176,3.13L55.415,81.272a7.406,7.406,0,0,0,5.851,8.018,7.273,7.273,0,0,0,8.6-6.466l5.264-56.856A11.1,11.1,0,0,0,65.16,13.854,10.87,10.87,0,0,0,53.532,23.68L49.015,72.457a1.858,1.858,0,0,1-2.022,1.679h0a1.858,1.858,0,0,1-1.68-2.022l4.516-48.777A14.592,14.592,0,0,1,66.245,10.23Z" fill="#0089DF"></path>
  </g>
</svg>